<?xml version="1.0" standalone="no"?>
<!DOCTYPE svg PUBLIC "-//W3C//DTD SVG 20010904//EN"
 "http://www.w3.org/TR/2001/REC-SVG-20010904/DTD/svg10.dtd">
<svg version="1.0" xmlns="http://www.w3.org/2000/svg"
 width="1280.000000pt" height="1280.000000pt" viewBox="0 0 1280.000000 1280.000000"
 preserveAspectRatio="xMidYMid meet">
<metadata>
Created by potrace 1.15, written by Peter Selinger 2001-2017
</metadata>
<g transform="translate(0.000000,1280.000000) scale(0.100000,-0.100000)"
fill="#c9c9c9" stroke="none">
<path d="M0 6400 l0 -6400 2196 0 2196 0 -124 131 c-67 73 -387 393 -709 713
-322 319 -599 599 -615 620 l-29 39 -3 2204 -2 2203 1419 0 1420 0 -160 -327
c-89 -181 -268 -555 -399 -833 -337 -716 -561 -1181 -925 -1920 -307 -625
-517 -1061 -512 -1066 1 -1 211 -4 467 -6 457 -3 466 -2 545 20 149 42 237
101 330 223 58 74 105 162 203 379 99 219 460 967 827 1715 81 165 234 485
340 710 212 450 340 714 409 845 l45 85 11 -30 c20 -54 40 -213 91 -745 100
-1052 119 -1229 144 -1327 56 -219 165 -316 390 -348 65 -9 3206 -9 3268 0 26
4 47 11 47 16 0 6 -11 31 -24 57 -13 26 -47 119 -76 207 -99 302 -177 430
-334 549 -88 67 -157 102 -240 121 -99 23 -769 37 -1411 29 -390 -5 -567 -3
-609 5 -33 6 -60 12 -61 13 -17 21 -167 1548 -211 2133 l-16 220 -65 145 c-66
146 -109 254 -376 935 -80 204 -179 453 -221 553 -42 101 -76 188 -76 193 0 5
202 9 483 9 l482 0 60 -118 c472 -922 550 -1067 607 -1125 35 -35 81 -69 120
-87 58 -28 72 -30 173 -30 107 0 112 1 185 37 47 24 97 60 137 100 76 75 98
134 97 258 -1 151 -18 189 -367 830 -99 182 -223 413 -275 515 -52 102 -117
215 -145 253 -94 128 -247 240 -397 291 -194 64 -498 74 -1885 57 -773 -9
-847 -11 -930 -29 -111 -24 -204 -61 -311 -122 -186 -107 -294 -211 -489 -469
-77 -102 -210 -268 -295 -370 -178 -214 -223 -270 -347 -436 -49 -66 -121
-153 -160 -192 l-70 -73 -457 0 -456 0 0 2025 0 2025 3483 0 3482 0 0 -3657 0
-3658 145 -7 c233 -10 405 -65 548 -173 106 -80 224 -230 302 -385 40 -79 315
-794 324 -841 l7 -37 -68 -12 c-50 -8 -224 -9 -665 -4 l-598 7 0 -779 0 -778
735 -734 c404 -404 735 -738 735 -743 0 -5 299 -9 730 -9 l730 0 0 6400 0
6400 -6400 0 -6400 0 0 -6400z"/>
<path d="M5108 11310 c-166 -20 -362 -96 -463 -180 -149 -124 -229 -271 -323
-588 -4 -12 -4 -75 0 -140 22 -369 235 -684 543 -803 127 -49 204 -63 360 -63
160 0 237 17 382 84 104 48 161 88 247 169 176 169 256 369 256 643 0 232 -51
383 -193 567 -83 107 -250 225 -391 277 -111 40 -259 52 -418 34z"/>
<path d="M4618 736 l737 -736 688 0 c475 0 687 3 687 11 0 5 -265 275 -588
598 -669 670 -678 678 -939 782 -166 66 -201 70 -790 76 l-532 6 737 -737z"/>
</g>
</svg>
